<svg width="399" height="52" viewBox="0 0 399 52" fill="none" xmlns="http://www.w3.org/2000/svg">
<path d="M20.5499 40.9601C31.8993 40.9601 41.0998 32.026 41.0998 21.0052C41.0998 9.98441 31.8993 1.05029 20.5499 1.05029C9.2005 1.05029 0 9.98441 0 21.0052C0 32.026 9.2005 40.9601 20.5499 40.9601Z" fill="white"/>
<path d="M35.0882 13.458V28.6257C35.0882 29.2608 34.5348 29.847 33.8305 29.847C33.1262 29.847 32.5729 29.3096 32.5729 28.6257V16.1203L27.1902 20.932C26.9638 21.1518 26.6368 21.2495 26.3601 21.2495H26.2595C25.9325 21.2495 25.6559 21.1518 25.4295 20.932L20.0971 16.1936V28.6746C20.0971 29.3096 19.5437 29.847 18.8897 29.847C18.2358 29.847 17.7327 29.3096 17.7327 28.6746L17.6824 22.7394C17.6824 22.1044 17.129 21.567 16.4751 21.567H9.70894C9.05496 21.567 8.50159 22.1044 8.50159 22.7394V28.6746C8.50159 29.3096 7.94824 29.847 7.29426 29.847H7.24395C6.58997 29.847 6.03662 29.3096 6.03662 28.6746V13.4092C6.03662 12.7742 6.58997 12.2368 7.24395 12.2368H7.29426C7.94824 12.2368 8.50159 12.7742 8.50159 13.4092V18.4162C8.50159 19.0513 9.05496 19.5886 9.70894 19.5886H16.4247C17.0787 19.5886 17.6321 19.0513 17.6321 18.4162V13.4092C17.6321 13.2382 17.6824 13.1405 17.7327 12.994C17.7327 12.9451 17.783 12.8963 17.783 12.8963L17.8333 12.7986C17.8333 12.7497 17.8836 12.7497 17.8836 12.7009L17.9339 12.652L18.0345 12.5543L18.1351 12.4566C18.2358 12.4078 18.3112 12.3589 18.4118 12.2857L18.5879 12.2368C18.6885 12.2368 18.8646 12.2368 18.9652 12.2368C19.2419 12.2368 19.5186 12.3345 19.6695 12.5543L19.7701 12.652L26.3098 18.4162L32.9502 12.5543C33.1766 12.3834 33.4533 12.2368 33.7299 12.2368C33.7802 12.2368 33.8305 12.2368 33.9563 12.2368C34.6103 12.3345 35.0882 12.7986 35.0882 13.458Z" fill="#1D266A"/>
<path d="M87.3558 39.5434H79.2818V23.5452H64.1649V39.5678H56.0405V2.4668H64.1649V17.0483H79.2818V2.4668H87.3558V39.5434Z" fill="white"/>
<path d="M114.898 39.5434L113.364 35.7088H113.137C112.031 37.1498 110.597 38.3222 109.012 39.1282C107.252 39.8121 105.39 40.1541 103.454 40.0808C100.989 40.2518 98.6243 39.3969 96.8636 37.736C95.1532 35.9286 94.2728 33.5838 94.4489 31.117C94.2728 28.5035 95.5053 25.9389 97.6936 24.449C100.662 22.7882 104.057 21.9822 107.528 22.1043L112.584 21.9333V20.7121C112.861 18.5871 111.326 16.6576 109.188 16.3889C108.811 16.3401 108.409 16.3401 108.082 16.3889C105.214 16.5599 102.422 17.2438 99.8316 18.465L97.1906 13.2381C100.662 11.5284 104.51 10.6247 108.358 10.6736C111.553 10.4537 114.722 11.3574 117.363 13.1893C119.551 15.1188 120.708 17.8788 120.507 20.7609V39.6656L114.898 39.5434ZM112.534 26.3786L109.465 26.4763C107.654 26.4274 105.893 26.7938 104.309 27.6975C103.152 28.4547 102.498 29.7736 102.598 31.117C102.598 33.2419 103.856 34.3654 106.497 34.3654C108.157 34.4631 109.742 33.8769 110.949 32.8267C112.056 31.752 112.66 30.2621 112.609 28.7233L112.534 26.3786Z" fill="white"/>
<path d="M124.507 11.1621H133.235L138.794 27.1114C139.297 28.7234 139.624 30.3599 139.775 32.0207H139.951C140.127 30.3599 140.504 28.7234 141.108 27.1114L146.541 11.1621H155.068L142.692 43.1828C141.812 45.7962 140.102 48.141 137.863 49.8018C135.725 51.2917 133.134 52.0489 130.493 52.0001C129.11 52.0001 127.802 51.8291 126.469 51.5848V45.5031C127.525 45.7229 128.556 45.8206 129.613 45.8695C130.996 45.8695 132.304 45.4543 133.361 44.6483C134.518 43.6224 135.398 42.3035 135.826 40.8624L136.253 39.4702L124.507 11.1621Z" fill="white"/>
<path d="M177.101 39.5434L162.865 5.27563H162.638C162.814 7.35172 162.865 9.54993 162.865 11.6749V39.4945H160.274V2.4668H164.399L177.931 35.0737H178.107L191.64 2.4668H195.664V39.5678H192.973V11.4306C192.973 9.45224 193.073 7.42499 193.3 5.3489H193.073L178.837 39.5189H177.126V39.5434H177.101Z" fill="white"/>
<path d="M223.106 39.5439L222.452 35.1719H222.225C221.068 36.7106 219.534 38.0051 217.823 38.9577C216.163 39.7637 214.352 40.13 212.491 40.0812C210.127 40.1789 207.813 39.495 206.002 38.0051C204.417 36.5152 203.537 34.3658 203.688 32.2409C203.587 29.6763 204.895 27.2827 207.159 25.9393C210.227 24.2785 213.698 23.4236 217.17 23.5946L222.603 23.4236V21.6162C222.779 19.5401 222.175 17.464 220.942 15.681C219.634 14.24 217.647 13.4828 215.61 13.6538C212.743 13.7026 209.951 14.4598 207.41 15.7299L206.429 13.6049C209.347 12.2616 212.466 11.5288 215.66 11.5288C218.251 11.3579 220.766 12.2127 222.653 13.8736C224.414 15.9497 225.244 18.5631 224.967 21.2498V39.6171H223.055L223.106 39.5439ZM212.617 37.7364C215.258 37.9074 217.849 36.9793 219.811 35.2207C221.622 33.3644 222.603 30.7998 222.452 28.1864V25.4753L217.497 25.6951C214.528 25.6463 211.611 26.2813 208.97 27.5025C206.278 29.3588 205.624 32.9981 207.536 35.6115C207.712 35.8313 207.863 36.0267 208.089 36.2465C209.322 37.3212 210.957 37.8341 212.617 37.7364Z" fill="white"/>
<path d="M241.744 37.7851C243.178 37.7851 244.611 37.6874 246.02 37.3698V39.3971C244.586 39.8123 243.152 40.0321 241.668 39.9833C239.631 40.1542 237.594 39.4459 236.11 38.0049C234.802 36.2463 234.123 34.0481 234.299 31.8743V14.0932H230.148V12.6521L234.324 11.4797L235.581 5.22705H236.889V11.895H245.19V14.0199H236.889V31.4835C236.789 33.1444 237.166 34.7808 238.046 36.173C239.002 37.3698 240.31 37.956 241.744 37.7851Z" fill="white"/>
<path d="M269.387 39.5434L268.783 35.1714H268.557C267.4 36.7101 265.865 38.0047 264.155 38.9572C262.495 39.7632 260.684 40.1296 258.823 40.0807C256.458 40.2517 254.144 39.4946 252.333 38.0047C250.749 36.5147 249.868 34.3654 250.019 32.2404C249.919 29.6759 251.226 27.2822 253.49 25.9389C256.509 24.278 260.03 23.4232 263.501 23.5941L268.934 23.4232V21.6157C269.11 19.5396 268.507 17.4635 267.274 15.6806C265.966 14.2395 263.979 13.4823 261.942 13.6533C259.074 13.7022 256.282 14.4593 253.742 15.7294L252.685 13.5312C255.603 12.1878 258.722 11.4551 261.916 11.4551C264.507 11.2841 267.023 12.139 268.909 13.7999C270.67 15.8759 271.5 18.4894 271.223 21.1761V39.5434H269.387ZM258.948 37.736C261.589 37.907 264.18 36.9788 266.142 35.2202C267.953 33.364 268.934 30.7994 268.783 28.186V25.4748L263.828 25.6946C260.86 25.6458 257.942 26.2808 255.301 27.5021C252.61 29.3583 251.956 32.9976 253.868 35.611C254.044 35.8309 254.195 36.0263 254.421 36.2461C255.653 37.3696 257.313 37.8337 258.948 37.736Z" fill="white"/>
<path d="M283.02 27.4288L297.533 11.9436H300.678L289.51 23.7407L301.658 39.5434H298.59L287.824 25.6214L283.146 29.7248V39.5434H280.555V0H283.146V19.7595L282.92 27.3311L283.02 27.4288Z" fill="white"/>
<path d="M323.642 39.5434L322.988 35.1714H322.761C321.604 36.7101 320.07 38.0047 318.36 38.9572C316.7 39.7632 314.889 40.1296 313.027 40.0807C310.663 40.2517 308.349 39.4946 306.538 38.0047C304.953 36.5147 304.073 34.3654 304.224 32.2404C304.123 29.6759 305.431 27.2822 307.695 25.9389C310.763 24.278 314.235 23.4232 317.706 23.5941L323.139 23.4232V21.6157C323.315 19.5396 322.711 17.4635 321.479 15.6806C320.171 14.2395 318.184 13.4823 316.146 13.6533C313.279 13.7022 310.487 14.4593 307.946 15.7294L306.965 13.5312C309.883 12.1878 313.002 11.4551 316.196 11.4551C318.787 11.2841 321.303 12.139 323.189 13.7999C324.95 15.8759 325.78 18.4894 325.503 21.1761V39.5434H323.642ZM313.203 37.736C315.844 37.907 318.435 36.9788 320.397 35.2202C322.208 33.364 323.189 30.7994 323.038 28.186V25.4748L318.083 25.6946C315.115 25.6458 312.197 26.2808 309.556 27.5021C306.865 29.3583 306.211 32.9976 308.122 35.611C308.298 35.8309 308.449 36.0263 308.676 36.2461C309.908 37.3696 311.568 37.907 313.203 37.736Z" fill="white"/>
<path d="M345.902 11.4307C347.21 11.4307 348.493 11.5284 349.801 11.7971L349.298 14.1907C348.091 13.8732 346.883 13.7755 345.626 13.7755C343.261 13.7755 340.997 14.899 339.689 16.7553C338.105 18.9535 337.275 21.6158 337.375 24.3269V39.5435H334.785V11.9681H336.923L337.199 16.9263H337.426C338.306 15.2166 339.564 13.7755 341.173 12.652C342.557 11.7971 344.217 11.3575 345.902 11.4307Z" fill="white"/>
<path d="M372.791 39.5439L372.137 35.1719H371.91C370.753 36.7106 369.219 38.0051 367.509 38.9577C365.848 39.7637 364.037 40.13 362.176 40.0812C359.812 40.1789 357.498 39.495 355.687 38.0051C354.102 36.5152 353.222 34.3658 353.373 32.2409C353.272 29.6763 354.58 27.2827 356.844 25.9393C359.912 24.2785 363.383 23.4236 366.855 23.5946L372.288 23.4236V21.6162C372.464 19.5401 371.86 17.464 370.628 15.681C369.32 14.24 367.332 13.4828 365.295 13.6538C362.428 13.7026 359.636 14.4598 357.095 15.7299L356.114 13.6049C359.032 12.2616 362.151 11.5288 365.345 11.5288C367.936 11.3579 370.451 12.2127 372.338 13.8736C374.099 15.9497 374.929 18.5631 374.652 21.2498V39.6171H372.74L372.791 39.5439ZM362.352 37.7364C364.993 37.9074 367.584 36.9793 369.546 35.2207C371.357 33.3644 372.338 30.7998 372.187 28.1864V25.4753L367.232 25.6707C364.264 25.6218 361.346 26.2569 358.705 27.4781C356.014 29.3344 355.36 32.9736 357.271 35.5871C357.447 35.8069 357.598 36.0023 357.825 36.2221C359.057 37.3212 360.692 37.8341 362.352 37.7364Z" fill="white"/>
<path d="M395.101 11.4307C396.409 11.4307 397.692 11.5284 399 11.7971L398.497 14.1907C397.29 13.8732 396.082 13.7755 394.825 13.7755C392.46 13.7755 390.197 14.899 388.889 16.7553C387.304 18.9535 386.474 21.6158 386.575 24.3269V39.5435H383.984V11.9681H386.122L386.399 16.9263H386.625C387.505 15.2166 388.763 13.7755 390.373 12.652C391.756 11.7971 393.391 11.3575 395.101 11.4307Z" fill="white"/>
</svg>
