<svg width="159" height="22" viewBox="0 0 159 22" fill="none" xmlns="http://www.w3.org/2000/svg">
<path d="M8.17 16.77C12.6822 16.77 16.34 13.1122 16.34 8.59999C16.34 4.08783 12.6822 0.429993 8.17 0.429993C3.65783 0.429993 0 4.08783 0 8.59999C0 13.1122 3.65783 16.77 8.17 16.77Z" fill="#1D266A"/>
<path d="M13.9499 5.50998V11.72C13.9499 11.98 13.7299 12.22 13.4499 12.22C13.1699 12.22 12.9499 12 12.9499 11.72V6.59998L10.8099 8.56998C10.7199 8.65998 10.5899 8.69998 10.4799 8.69998H10.4399C10.3099 8.69998 10.1999 8.65998 10.1099 8.56998L7.9899 6.62998V11.74C7.9899 12 7.7699 12.22 7.5099 12.22C7.2499 12.22 7.0499 12 7.0499 11.74L7.0299 9.30998C7.0299 9.04998 6.8099 8.82998 6.5499 8.82998H3.8599C3.5999 8.82998 3.3799 9.04998 3.3799 9.30998V11.74C3.3799 12 3.1599 12.22 2.8999 12.22H2.8799C2.6199 12.22 2.3999 12 2.3999 11.74V5.48998C2.3999 5.22998 2.6199 5.00998 2.8799 5.00998H2.8999C3.1599 5.00998 3.3799 5.22998 3.3799 5.48998V7.53998C3.3799 7.79998 3.5999 8.01998 3.8599 8.01998H6.5299C6.7899 8.01998 7.0099 7.79998 7.0099 7.53998V5.48998C7.0099 5.41998 7.0299 5.37998 7.0499 5.31998C7.0499 5.29998 7.0699 5.27998 7.0699 5.27998L7.0899 5.23998C7.0899 5.21998 7.1099 5.21998 7.1099 5.19998L7.1299 5.17998L7.1699 5.13998L7.2099 5.09998C7.2499 5.07998 7.2799 5.05998 7.3199 5.02998L7.3899 5.00998C7.4299 5.00998 7.4999 5.00998 7.5399 5.00998C7.6499 5.00998 7.7599 5.04998 7.8199 5.13998L7.8599 5.17998L10.4599 7.53998L13.0999 5.13998C13.1899 5.06998 13.2999 5.00998 13.4099 5.00998C13.4299 5.00998 13.4499 5.00998 13.4999 5.00998C13.7599 5.04998 13.9499 5.23998 13.9499 5.50998Z" fill="white"/>
<path d="M34.7298 16.19H31.5198V9.64001H25.5098V16.2H22.2798V1.01001H25.5098V6.98001H31.5198V1.01001H34.7298V16.19Z" fill="#1D266A"/>
<path d="M45.6798 16.19L45.0698 14.62H44.9798C44.5398 15.21 43.9698 15.69 43.3398 16.02C42.6398 16.3 41.8998 16.44 41.1298 16.41C40.1498 16.48 39.2098 16.13 38.5098 15.45C37.8298 14.71 37.4798 13.75 37.5498 12.74C37.4798 11.67 37.9698 10.62 38.8398 10.01C40.0198 9.33 41.3698 9 42.7498 9.05L44.7598 8.98V8.48C44.8698 7.61 44.2598 6.82 43.4098 6.71C43.2598 6.69 43.0998 6.69 42.9698 6.71C41.8298 6.78 40.7198 7.06 39.6898 7.56L38.6398 5.42C40.0198 4.72 41.5498 4.35 43.0798 4.37C44.3498 4.28 45.6098 4.65 46.6598 5.4C47.5298 6.19 47.9898 7.32 47.9098 8.5V16.24L45.6798 16.19ZM44.7398 10.8L43.5198 10.84C42.7998 10.82 42.0998 10.97 41.4698 11.34C41.0098 11.65 40.7498 12.19 40.7898 12.74C40.7898 13.61 41.2898 14.07 42.3398 14.07C42.9998 14.11 43.6298 13.87 44.1098 13.44C44.5498 13 44.7898 12.39 44.7698 11.76L44.7398 10.8Z" fill="#1D266A"/>
<path d="M49.5 4.57001H52.97L55.18 11.1C55.38 11.76 55.51 12.43 55.57 13.11H55.64C55.71 12.43 55.86 11.76 56.1 11.1L58.26 4.57001H61.65L56.73 17.68C56.38 18.75 55.7 19.71 54.81 20.39C53.96 21 52.93 21.31 51.88 21.29C51.33 21.29 50.81 21.22 50.28 21.12V18.63C50.7 18.72 51.11 18.76 51.53 18.78C52.08 18.78 52.6 18.61 53.02 18.28C53.48 17.86 53.83 17.32 54 16.73L54.17 16.16L49.5 4.57001Z" fill="#1D266A"/>
<path d="M70.4097 16.19L64.7497 2.16001H64.6597C64.7297 3.01001 64.7497 3.91001 64.7497 4.78001V16.17H63.7197V1.01001H65.3597L70.7397 14.36H70.8097L76.1897 1.01001H77.7897V16.2H76.7197V4.68001C76.7197 3.87001 76.7597 3.04001 76.8497 2.19001H76.7597L71.0997 16.18H70.4197V16.19H70.4097Z" fill="#1D266A"/>
<path d="M88.6998 16.19L88.4398 14.4H88.3498C87.8898 15.03 87.2798 15.56 86.5998 15.95C85.9398 16.28 85.2198 16.43 84.4798 16.41C83.5398 16.45 82.6198 16.17 81.8998 15.56C81.2698 14.95 80.9198 14.07 80.9798 13.2C80.9398 12.15 81.4598 11.17 82.3598 10.62C83.5798 9.93998 84.9598 9.58998 86.3398 9.65998L88.4998 9.58998V8.84999C88.5698 7.99999 88.3298 7.14998 87.8398 6.41998C87.3198 5.82998 86.5298 5.51998 85.7198 5.58998C84.5798 5.60998 83.4698 5.91998 82.4598 6.43998L82.0698 5.56998C83.2298 5.01998 84.4698 4.71998 85.7398 4.71998C86.7698 4.64998 87.7698 4.99998 88.5198 5.67998C89.2198 6.52998 89.5498 7.59998 89.4398 8.69998V16.22H88.6798L88.6998 16.19ZM84.5298 15.45C85.5798 15.52 86.6098 15.14 87.3898 14.42C88.1098 13.66 88.4998 12.61 88.4398 11.54V10.43L86.4698 10.52C85.2898 10.5 84.1298 10.76 83.0798 11.26C82.0098 12.02 81.7498 13.51 82.5098 14.58C82.5798 14.67 82.6398 14.75 82.7298 14.84C83.2198 15.28 83.8698 15.49 84.5298 15.45Z" fill="#1D266A"/>
<path d="M96.11 15.47C96.68 15.47 97.25 15.43 97.81 15.3V16.13C97.24 16.3 96.67 16.39 96.08 16.37C95.27 16.44 94.46 16.15 93.87 15.56C93.35 14.84 93.08 13.94 93.15 13.05V5.77001H91.5V5.18001L93.16 4.70001L93.66 2.14001H94.18V4.87001H97.48V5.74001H94.18V12.89C94.14 13.57 94.29 14.24 94.64 14.81C95.02 15.3 95.54 15.54 96.11 15.47Z" fill="#1D266A"/>
<path d="M107.1 16.19L106.86 14.4H106.77C106.31 15.03 105.7 15.56 105.02 15.95C104.36 16.28 103.64 16.43 102.9 16.41C101.96 16.48 101.04 16.17 100.32 15.56C99.6897 14.95 99.3397 14.07 99.3997 13.2C99.3597 12.15 99.8797 11.17 100.78 10.62C101.98 9.93999 103.38 9.58999 104.76 9.65999L106.92 9.58999V8.84999C106.99 7.99999 106.75 7.14999 106.26 6.41999C105.74 5.82999 104.95 5.51999 104.14 5.58999C103 5.60999 101.89 5.91999 100.88 6.43999L100.46 5.53999C101.62 4.98999 102.86 4.68999 104.13 4.68999C105.16 4.61999 106.16 4.96999 106.91 5.64999C107.61 6.49999 107.94 7.56999 107.83 8.66999V16.19H107.1ZM102.95 15.45C104 15.52 105.03 15.14 105.81 14.42C106.53 13.66 106.92 12.61 106.86 11.54V10.43L104.89 10.52C103.71 10.5 102.55 10.76 101.5 11.26C100.43 12.02 100.17 13.51 100.93 14.58C101 14.67 101.06 14.75 101.15 14.84C101.64 15.3 102.3 15.49 102.95 15.45Z" fill="#1D266A"/>
<path d="M112.52 11.23L118.29 4.89H119.54L115.1 9.72L119.93 16.19H118.71L114.43 10.49L112.57 12.17V16.19H111.54V0H112.57V8.09L112.48 11.19L112.52 11.23Z" fill="#1D266A"/>
<path d="M128.67 16.19L128.41 14.4H128.32C127.86 15.03 127.25 15.56 126.57 15.95C125.91 16.28 125.19 16.43 124.45 16.41C123.51 16.48 122.59 16.17 121.87 15.56C121.24 14.95 120.89 14.07 120.95 13.2C120.91 12.15 121.43 11.17 122.33 10.62C123.55 9.93999 124.93 9.58999 126.31 9.65999L128.47 9.58999V8.84999C128.54 7.99999 128.3 7.14999 127.81 6.41999C127.29 5.82999 126.5 5.51999 125.69 5.58999C124.55 5.60999 123.44 5.91999 122.43 6.43999L122.04 5.53999C123.2 4.98999 124.44 4.68999 125.71 4.68999C126.74 4.61999 127.74 4.96999 128.49 5.64999C129.19 6.49999 129.52 7.56999 129.41 8.66999V16.19H128.67ZM124.52 15.45C125.57 15.52 126.6 15.14 127.38 14.42C128.1 13.66 128.49 12.61 128.43 11.54V10.43L126.46 10.52C125.28 10.5 124.12 10.76 123.07 11.26C122 12.02 121.74 13.51 122.5 14.58C122.57 14.67 122.63 14.75 122.72 14.84C123.21 15.3 123.87 15.52 124.52 15.45Z" fill="#1D266A"/>
<path d="M137.52 4.67999C138.04 4.67999 138.55 4.71999 139.07 4.82999L138.87 5.80999C138.39 5.67999 137.91 5.63999 137.41 5.63999C136.47 5.63999 135.57 6.09999 135.05 6.85999C134.42 7.75999 134.09 8.84999 134.13 9.95999V16.19H133.1V4.89999H133.95L134.06 6.92999H134.15C134.5 6.22999 135 5.63999 135.64 5.17999C136.19 4.82999 136.85 4.64999 137.52 4.67999Z" fill="#1D266A"/>
<path d="M148.21 16.19L147.95 14.4H147.86C147.4 15.03 146.79 15.56 146.11 15.95C145.45 16.28 144.73 16.43 143.99 16.41C143.05 16.45 142.13 16.17 141.41 15.56C140.78 14.95 140.43 14.07 140.49 13.2C140.45 12.15 140.97 11.17 141.87 10.62C143.09 9.93998 144.47 9.58998 145.85 9.65998L148.01 9.58998V8.84999C148.08 7.99999 147.84 7.14998 147.35 6.41998C146.83 5.82998 146.04 5.51998 145.23 5.58998C144.09 5.60998 142.98 5.91998 141.97 6.43998L141.58 5.56998C142.74 5.01998 143.98 4.71998 145.25 4.71998C146.28 4.64998 147.28 4.99998 148.03 5.67998C148.73 6.52998 149.06 7.59998 148.95 8.69998V16.22H148.19L148.21 16.19ZM144.06 15.45C145.11 15.52 146.14 15.14 146.92 14.42C147.64 13.66 148.03 12.61 147.97 11.54V10.43L146 10.51C144.82 10.49 143.66 10.75 142.61 11.25C141.54 12.01 141.28 13.5 142.04 14.57C142.11 14.66 142.17 14.74 142.26 14.83C142.75 15.28 143.4 15.49 144.06 15.45Z" fill="#1D266A"/>
<path d="M157.08 4.67999C157.6 4.67999 158.11 4.71999 158.63 4.82999L158.43 5.80999C157.95 5.67999 157.47 5.63999 156.97 5.63999C156.03 5.63999 155.13 6.09999 154.61 6.85999C153.98 7.75999 153.65 8.84999 153.69 9.95999V16.19H152.66V4.89999H153.51L153.62 6.92999H153.71C154.06 6.22999 154.56 5.63999 155.2 5.17999C155.75 4.82999 156.4 4.64999 157.08 4.67999Z" fill="#1D266A"/>
</svg>
