<svg width="60" height="52" viewBox="0 0 60 52" fill="none" xmlns="http://www.w3.org/2000/svg">
<path d="M57.8473 0.125H2.15285C0.965742 0.125 0 1.09074 0 2.27785V36.7759C0 37.963 0.965742 38.9287 2.15285 38.9287H3.17355L0.546211 41.5562C-0.140156 42.2425 -0.140156 43.3552 0.546211 44.0416C0.889336 44.3847 1.33922 44.5564 1.78887 44.5564C2.23852 44.5564 2.68852 44.3848 3.03152 44.0416L8.14441 38.9287H24.4025V46.0501C21.5046 46.5105 18.6746 47.3286 15.9435 48.502C15.0516 48.8851 14.6393 49.9187 15.0225 50.8105C15.4056 51.7022 16.4394 52.1147 17.331 51.7313C21.3568 50.0018 25.62 49.1239 30.0018 49.1223C30.0057 49.1223 30.0093 49.1223 30.0134 49.1223C34.3909 49.1223 38.651 49.9972 42.6732 51.722L42.6953 51.7314C42.9216 51.8287 43.1566 51.8746 43.3883 51.8746C44.0694 51.8746 44.7179 51.4762 45.0037 50.8106C45.387 49.9189 44.9747 48.8852 44.083 48.502L44.0598 48.492C41.3272 47.3204 38.4963 46.5041 35.5977 46.0457V38.9286H57.8473C59.0344 38.9286 60 37.9629 60 36.7757V2.27785C60 1.09074 59.0343 0.125 57.8473 0.125ZM32.0827 45.6692H32.0825C31.3956 45.6298 30.7059 45.6078 30.0134 45.6078C30.0091 45.6078 30.0046 45.6078 30.0005 45.6078C29.3032 45.6081 28.609 45.6307 27.9175 45.6709V38.9288H32.0825V45.6692H32.0827ZM56.4851 35.4138H11.6595L16.07 31.0032C17.469 31.7168 19.0518 32.1196 20.7268 32.1196C26.397 32.1196 31.0098 27.5068 31.0098 21.8367C31.0098 16.1666 26.3968 11.5537 20.7268 11.5537C15.0568 11.5537 10.4439 16.1666 10.4439 21.8367C10.4439 24.5546 11.5043 27.0293 13.2326 28.8697L6.68859 35.4137H3.51492V3.63992H56.4851V35.4138ZM13.9588 21.8368C13.9588 18.1048 16.9949 15.0687 20.7268 15.0687C24.4588 15.0687 27.4949 18.1048 27.4949 21.8368C27.4949 25.5688 24.4588 28.6048 20.7268 28.6048C16.9949 28.6048 13.9588 25.5686 13.9588 21.8368Z" fill="#460E8B"/>
</svg>
