<svg width="60" height="60" viewBox="0 0 60 60" fill="none" xmlns="http://www.w3.org/2000/svg">
<path d="M20.3906 28.125H7.73438C3.46957 28.125 0 24.6554 0 20.3906V7.73438C0 3.46957 3.46957 0 7.73438 0H20.3906C24.6554 0 28.125 3.46957 28.125 7.73438V20.3906C28.125 24.6554 24.6554 28.125 20.3906 28.125ZM7.73438 3.75C5.53734 3.75 3.75 5.53734 3.75 7.73438V20.3906C3.75 22.5877 5.53734 24.375 7.73438 24.375H20.3906C22.5877 24.375 24.375 22.5877 24.375 20.3906V7.73438C24.375 5.53734 22.5877 3.75 20.3906 3.75H7.73438Z" fill="#FFC107"/>
<path d="M52.2656 28.125H39.6094C35.3446 28.125 31.875 24.6554 31.875 20.3906V7.73438C31.875 3.46957 35.3446 0 39.6094 0H52.2656C56.5304 0 60 3.46957 60 7.73438V20.3906C60 24.6554 56.5304 28.125 52.2656 28.125ZM39.6094 3.75C37.4123 3.75 35.625 5.53734 35.625 7.73438V20.3906C35.625 22.5877 37.4123 24.375 39.6094 24.375H52.2656C54.4627 24.375 56.25 22.5877 56.25 20.3906V7.73438C56.25 5.53734 54.4627 3.75 52.2656 3.75H39.6094Z" fill="#FFC107"/>
<path d="M45.9375 60C38.1834 60 31.875 53.6916 31.875 45.9375C31.875 38.1834 38.1834 31.875 45.9375 31.875C53.6916 31.875 60 38.1834 60 45.9375C60 53.6916 53.6916 60 45.9375 60ZM45.9375 35.625C40.2512 35.625 35.625 40.2512 35.625 45.9375C35.625 51.6238 40.2512 56.25 45.9375 56.25C51.6238 56.25 56.25 51.6238 56.25 45.9375C56.25 40.2512 51.6238 35.625 45.9375 35.625Z" fill="#FFC107"/>
<path d="M20.3906 60H7.73438C3.46957 60 0 56.5304 0 52.2656V39.6094C0 35.3446 3.46957 31.875 7.73438 31.875H20.3906C24.6554 31.875 28.125 35.3446 28.125 39.6094V52.2656C28.125 56.5304 24.6554 60 20.3906 60ZM7.73438 35.625C5.53734 35.625 3.75 37.4123 3.75 39.6094V52.2656C3.75 54.4627 5.53734 56.25 7.73438 56.25H20.3906C22.5877 56.25 24.375 54.4627 24.375 52.2656V39.6094C24.375 37.4123 22.5877 35.625 20.3906 35.625H7.73438Z" fill="#FFC107"/>
</svg>
