<svg width="55" height="55" viewBox="0 0 55 55" fill="none" xmlns="http://www.w3.org/2000/svg">
<path d="M54.27 24.8752C54.1647 23.8704 53.6406 22.9475 52.8327 22.3437C52.0274 21.7422 50.9993 21.5024 50.011 21.685V21.6855L28.9785 25.5801V4.23869C28.9785 3.23253 28.5547 2.2639 27.8158 1.58045C27.0788 0.898385 26.0818 0.551399 25.0816 0.630135C18.2833 1.16068 11.974 4.21306 7.31666 9.22558C2.63328 14.2651 0.0546875 20.8317 0.0546875 27.7151C0.0546875 34.9693 2.87909 41.7905 7.99965 46.9133C8.01338 46.9271 8.02712 46.9408 8.04131 46.9545C13.1692 52.0673 19.9812 54.883 27.2226 54.883C27.2789 54.883 27.3338 54.8803 27.3887 54.8752C34.5898 54.8368 41.3537 52.0151 46.4505 46.9184C46.4903 46.8785 46.5274 46.8373 46.5627 46.7952C50.0092 43.3107 52.4481 38.9707 53.6191 34.2355L53.6525 34.0982C53.7862 33.5452 53.902 32.9959 53.9958 32.4677C54.4435 29.9646 54.5355 27.4103 54.27 24.8752ZM25.3544 4.13066C25.3572 4.13066 25.3608 4.1302 25.3654 4.1302C25.381 4.1302 25.4052 4.13386 25.4313 4.15813C25.467 4.19109 25.467 4.22588 25.467 4.23869V26.963L20.8486 31.5819L9.28688 43.1432C5.58494 38.853 3.56574 33.4395 3.56574 27.7151C3.56574 15.4434 13.1367 5.08418 25.3544 4.13066ZM27.2404 51.3642C27.2349 51.3642 27.2303 51.3646 27.2226 51.3642C27.1708 51.3642 27.1191 51.3665 27.0683 51.3715C21.3902 51.3353 16.0229 49.3097 11.7684 45.6279L27.2226 30.1733L42.6813 45.6321C38.3888 49.3413 32.9707 51.3642 27.2404 51.3642ZM50.5388 31.8515C50.4573 32.3116 50.3566 32.7899 50.2403 33.2706L50.2115 33.3891C49.3202 36.9931 47.5858 40.3334 45.1591 43.1441L35.2765 33.2619L30.8238 28.8092L50.65 25.1379C50.6633 25.1352 50.6949 25.1297 50.7311 25.1567C50.7723 25.1878 50.7764 25.2281 50.7777 25.2414C51.0094 27.4483 50.9293 29.6712 50.5388 31.8515Z" fill="#1948D6"/>
</svg>
