<svg width="60" height="60" viewBox="0 0 60 60" fill="none" xmlns="http://www.w3.org/2000/svg">
<path d="M34.7418 39.4451C33.2747 38.4215 31.7068 37.5874 30.0671 36.9502C32.2484 34.9677 33.6954 32.1904 33.9471 29.0813C37.2549 25.8582 41.5909 24.0912 46.239 24.0912C49.8677 24.0912 53.3517 25.1839 56.3153 27.2507C57.3773 27.9913 58.8376 27.7313 59.5782 26.6693C60.3184 25.6078 60.0584 24.147 58.9969 23.4068C57.5297 22.3833 55.9614 21.5497 54.3217 20.912C56.7287 18.7244 58.242 15.5699 58.242 12.0689C58.242 5.47852 52.8807 0.117188 46.2903 0.117188C39.7003 0.117188 34.339 5.47852 34.339 12.0689C34.339 15.5557 35.84 18.6987 38.2304 20.8855C37.9031 21.0114 37.5777 21.1446 37.2554 21.2865C35.7887 21.9319 34.4099 22.7257 33.1277 23.6577C31.3594 19.2645 27.0541 16.1554 22.0357 16.1554C15.4457 16.1554 10.0839 21.5167 10.0839 28.1067C10.0839 31.5839 11.5767 34.7182 13.9543 36.904C7.59734 39.2858 2.44292 44.4013 0.344534 50.9253C-0.351267 53.0887 0.0172332 55.383 1.35573 57.22C2.69424 59.0566 4.76516 60.1099 7.0375 60.1099H27.4258C28.7199 60.1099 29.7691 59.0607 29.7691 57.7661C29.7691 56.472 28.7199 55.4228 27.4258 55.4228H7.0375C6.2799 55.4228 5.58959 55.0717 5.14327 54.4592C4.69695 53.8468 4.57427 53.0818 4.8059 52.3604C7.12218 45.1589 14.1864 40.1294 21.9844 40.1294C25.6126 40.1294 29.0971 41.2221 32.0607 43.2889C33.1222 44.0296 34.583 43.7691 35.3236 42.7075C36.0638 41.646 35.8038 40.1853 34.7418 39.4451ZM46.2903 4.80423C50.2962 4.80423 53.555 8.06305 53.555 12.0689C53.555 16.0744 50.2962 19.3337 46.2903 19.3337C42.2848 19.3337 39.0256 16.0744 39.0256 12.0689C39.0256 8.06305 42.2848 4.80423 46.2903 4.80423ZM22.0357 20.842C26.0416 20.842 29.3004 24.1013 29.3004 28.1067C29.3004 32.1126 26.0416 35.3714 22.0357 35.3714C18.0298 35.3714 14.771 32.1126 14.771 28.1067C14.771 24.1013 18.0298 20.842 22.0357 20.842ZM59.9998 48.9784C59.9998 50.2725 58.9506 51.3217 57.6561 51.3217H51.2117V57.7661C51.2117 59.0607 50.1625 60.1099 48.8684 60.1099C47.5738 60.1099 46.5246 59.0607 46.5246 57.7661V51.3217H40.0802C38.7862 51.3217 37.737 50.2725 37.737 48.9784C37.737 47.6839 38.7862 46.6347 40.0802 46.6347H46.5246V40.1903C46.5246 38.8962 47.5738 37.847 48.8684 37.847C50.1625 37.847 51.2117 38.8962 51.2117 40.1903V46.6347H57.6561C58.9506 46.6347 59.9998 47.6839 59.9998 48.9784Z" fill="#1FDCCE"/>
</svg>
