<svg width="60" height="60" viewBox="0 0 60 60" fill="none" xmlns="http://www.w3.org/2000/svg">
<path d="M59.99 2.53182C59.9869 2.48873 59.984 2.44564 59.9789 2.40309C59.9736 2.35964 59.9663 2.31655 59.9591 2.27345C59.9514 2.22764 59.944 2.18182 59.934 2.13673C59.9251 2.09673 59.914 2.05745 59.9032 2.01782C59.8911 1.97182 59.8789 1.92564 59.8641 1.88073C59.8514 1.84109 59.836 1.80218 59.8212 1.76309C59.8049 1.72018 59.7892 1.67709 59.7709 1.63527C59.7531 1.59436 59.7327 1.55455 59.7127 1.51436C59.6936 1.476 59.6751 1.43727 59.6543 1.4C59.6318 1.35945 59.6065 1.32036 59.582 1.28073C59.5596 1.24509 59.5378 1.20927 59.5136 1.17473C59.488 1.13764 59.46 1.102 59.4323 1.066C59.4051 1.03036 59.3776 0.994909 59.3487 0.960909C59.3216 0.928909 59.2923 0.898182 59.2636 0.867273C59.2298 0.831273 59.196 0.795818 59.1603 0.761455C59.1483 0.75 59.138 0.737273 59.1258 0.726C59.1078 0.709455 59.0885 0.695636 59.0703 0.679818C59.0331 0.646909 58.9952 0.615091 58.9562 0.584182C58.9229 0.558 58.8892 0.532909 58.8549 0.508545C58.8174 0.481636 58.7791 0.455636 58.7401 0.430727C58.7027 0.406727 58.6651 0.383818 58.6267 0.361818C58.5885 0.339818 58.5496 0.319091 58.5103 0.298909C58.4701 0.278364 58.43 0.258727 58.3891 0.240545C58.3489 0.222545 58.3085 0.205818 58.2676 0.189818C58.226 0.173455 58.1842 0.158 58.142 0.143818C58.1002 0.129818 58.0578 0.116909 58.0152 0.104909C57.9721 0.0927273 57.9287 0.0814546 57.8851 0.0714545C57.8427 0.0616364 57.8 0.0530909 57.7569 0.0452727C57.7109 0.0369091 57.6647 0.03 57.6181 0.024C57.5769 0.0187273 57.5356 0.0143636 57.4938 0.0109091C57.444 0.00690909 57.394 0.00454545 57.3442 0.00327273C57.3202 0.00309091 57.2967 0 57.2725 0H46.3634C44.8572 0 43.6362 1.22109 43.6362 2.72727C43.6362 4.23345 44.8572 5.45455 46.3634 5.45455H51.0305L34.4696 23.3402L27.3827 16.2533C26.8587 15.7291 26.1456 15.4445 25.4023 15.4549C24.6612 15.4691 23.9578 15.7842 23.4538 16.3278L0.72651 40.8493C-0.297308 41.954 -0.231854 43.6795 0.872873 44.7035C1.39796 45.19 2.06287 45.4305 2.72615 45.4305C3.45887 45.4305 4.18978 45.1369 4.72724 44.5573L25.5289 22.1135L32.6167 29.2013C33.1411 29.7256 33.8616 30.0164 34.5976 29.9996C35.3389 29.9855 36.0427 29.6698 36.5463 29.1258L54.5452 9.68691V13.6364C54.5452 15.1425 55.7663 16.3636 57.2725 16.3636C58.7787 16.3636 59.9998 15.1425 59.9998 13.6364V2.72727C59.9998 2.71018 59.9976 2.69382 59.9972 2.67691C59.9963 2.62855 59.9934 2.58018 59.99 2.53182Z" fill="#DD4F8A"/>
<path d="M57.2727 54.5454H2.72727C1.22109 54.5454 0 55.7665 0 57.2727C0 58.7789 1.22109 60 2.72727 60H57.2727C58.7789 60 60 58.7789 60 57.2727C60 55.7665 58.7789 54.5454 57.2727 54.5454Z" fill="#DD4F8A"/>
</svg>
